<?xml version="1.0" standalone="no"?>
<!DOCTYPE svg PUBLIC "-//W3C//DTD SVG 20010904//EN"
 "http://www.w3.org/TR/2001/REC-SVG-20010904/DTD/svg10.dtd">
<svg version="1.0" xmlns="http://www.w3.org/2000/svg"
 width="500.000000pt" height="500.000000pt" viewBox="0 0 500.000000 500.000000"
 preserveAspectRatio="xMidYMid meet">

<g transform="translate(0.000000,500.000000) scale(0.100000,-0.100000)"
fill="#000000" stroke="none">
<path d="M1920 4197 c0 -2 22 -18 49 -35 67 -44 95 -107 95 -217 0 -61 -5 -91
-22 -126 -18 -38 -139 -219 -170 -254 -5 -6 -21 -41 -36 -78 -35 -88 -37 -223
-6 -354 41 -169 37 -301 -10 -331 -17 -10 -23 -9 -40 8 -18 18 -20 33 -20 139
0 172 -32 254 -120 305 l-33 19 7 -24 c44 -141 21 -234 -110 -434 -101 -154
-133 -251 -134 -400 0 -128 26 -207 107 -317 29 -41 47 -58 108 -106 28 -23
121 -82 127 -82 4 0 -1 15 -12 33 -31 51 -24 51 43 -2 174 -136 409 -201 727
-201 278 0 485 49 650 155 91 59 145 118 188 204 l37 75 3 157 c3 109 0 164
-8 180 -16 29 -31 18 310 218 l280 165 0 35 c0 35 -2 37 -72 66 -39 17 -76 29
-82 27 -6 -2 -168 -70 -360 -153 l-349 -149 -76 24 c-104 33 -308 66 -395 65
-71 -2 -71 -2 26 -10 273 -22 493 -89 624 -188 89 -67 117 -157 74 -242 l-21
-40 -28 17 c-29 17 -41 51 -41 117 0 21 -7 30 -27 38 -16 6 -45 20 -66 31 -24
13 -45 17 -60 12 -27 -9 -114 -13 -144 -6 -13 2 -23 10 -23 17 0 8 -21 15 -57
19 -32 4 -84 17 -115 30 -37 15 -60 20 -66 14 -16 -16 -108 1 -128 23 -18 20
-50 24 -73 10 -9 -6 -23 -5 -38 2 -18 8 -27 7 -43 -8 -11 -10 -20 -24 -20 -32
0 -7 -8 -13 -19 -13 -10 0 -24 -7 -31 -15 -16 -20 -89 -20 -126 0 -33 17 -40
15 -149 -31 -61 -25 -90 -32 -116 -28 -25 4 -39 1 -48 -10 -7 -9 -22 -16 -32
-16 -11 0 -29 -10 -40 -21 -12 -12 -38 -26 -58 -31 -44 -12 -97 -51 -106 -78
-9 -29 -19 -25 -38 15 -67 140 81 282 374 360 103 27 271 54 359 56 30 1 43 4
28 6 -16 2 -28 6 -28 9 0 2 9 36 20 76 57 214 57 395 -2 514 -44 90 -60 95
-52 17 6 -51 3 -67 -20 -115 -22 -46 -32 -58 -58 -63 -35 -8 -68 6 -87 38 -20
30 -16 117 8 189 55 166 75 305 59 403 -18 116 -117 259 -211 304 -38 18 -77
27 -77 18z m279 -417 c2 -66 -49 -214 -66 -196 -2 2 7 46 21 97 14 52 26 112
27 134 0 32 2 36 9 20 5 -11 9 -36 9 -55z m-326 -384 c-4 -64 0 -117 11 -171
17 -82 21 -165 8 -165 -14 0 -52 187 -52 255 0 56 24 175 35 175 1 0 1 -42 -2
-94z m308 -319 c-23 -47 -61 -89 -61 -68 0 26 67 127 77 117 3 -3 -4 -25 -16
-49z m-271 -117 c0 -10 -4 -22 -10 -25 -6 -4 -10 7 -10 25 0 18 4 29 10 25 6
-3 10 -15 10 -25z m197 -64 c-9 -35 -17 -74 -17 -85 0 -23 -19 -35 -67 -44
-40 -8 -42 5 -12 66 47 91 90 150 102 138 8 -8 7 -27 -6 -75z m1806 44 c-4 -4
-107 -65 -228 -135 -121 -71 -253 -148 -293 -173 -41 -24 -76 -41 -80 -38 -10
10 8 22 204 138 338 199 388 227 397 221 5 -3 5 -9 0 -13z m-1787 -106 c-3 -9
-6 -22 -6 -30 0 -8 -4 -14 -8 -14 -5 0 -7 14 -4 30 2 17 9 30 14 30 6 0 7 -7
4 -16z m-676 -289 c-7 -50 -9 -113 -6 -149 7 -57 6 -60 -9 -45 -26 26 -37 104
-24 173 11 61 36 122 46 112 3 -2 0 -44 -7 -91z m999 83 c11 -10 14 -10 18 0
8 20 60 14 77 -9 8 -12 19 -18 26 -14 6 4 22 -1 35 -9 31 -20 31 -74 0 -93
-30 -19 -91 -15 -127 7 -23 14 -42 18 -73 14 -31 -5 -46 -2 -65 14 -21 17 -23
22 -11 36 8 10 21 14 32 11 14 -5 19 -1 19 12 0 38 42 56 69 31z m-254 -62
c18 -13 14 -16 -50 -45 -98 -45 -112 -47 -120 -21 -9 27 -9 26 62 56 68 28 82
29 108 10z m558 -62 c-2 -7 0 -28 5 -47 8 -30 7 -36 -7 -40 -11 -2 -23 4 -30
15 -9 15 -19 18 -39 14 l-27 -7 23 19 c21 16 22 21 11 46 -9 19 -18 26 -31 23
-14 -4 -18 1 -18 18 l0 23 59 -26 c35 -15 57 -31 54 -38z m-522 23 c-12 -13
-50 -41 -86 -61 -62 -37 -63 -38 -53 -67 11 -33 24 -33 90 4 23 12 43 17 55
12 15 -6 11 -10 -24 -25 -23 -10 -49 -30 -58 -44 -10 -14 -25 -26 -35 -26 -9
0 -41 -10 -70 -22 l-52 -22 -19 25 c-25 32 -24 33 16 48 23 8 35 19 35 31 0
11 9 24 19 30 11 5 21 22 23 36 2 21 17 32 88 64 47 21 87 39 89 40 3 0 -5
-11 -18 -23z m812 -8 c16 -9 22 -9 25 0 6 19 60 13 72 -8 6 -12 23 -21 43 -23
29 -3 32 -6 33 -38 1 -19 4 -42 8 -51 8 -19 -17 -49 -42 -49 -10 0 -28 -7 -40
-16 -18 -13 -29 -14 -50 -5 -15 5 -40 11 -57 13 -23 2 -33 11 -44 35 -8 17
-25 36 -38 42 -31 14 -29 57 3 54 14 -1 23 7 31 27 12 33 23 36 56 19z m-1071
-12 c23 4 29 1 38 -21 5 -14 16 -26 25 -26 19 0 20 -26 1 -37 -8 -4 -15 -17
-17 -28 -6 -29 -111 -65 -139 -47 -11 6 -28 12 -39 12 -25 0 -45 26 -36 47 4
10 8 29 9 43 1 19 7 26 26 28 13 2 35 12 48 23 17 13 29 16 41 10 9 -5 28 -7
43 -4z m373 -7 c-3 -4 -19 -13 -37 -19 l-32 -11 23 24 c20 22 59 27 46 6z
m625 5 c0 -8 -9 -15 -19 -15 -11 0 -26 -8 -33 -18 -12 -17 -16 -17 -77 9 l-64
27 66 -5 c47 -4 67 -2 67 6 0 6 14 11 30 11 20 0 30 -5 30 -15z m-496 -16 c13
-12 13 -11 -83 -53 -74 -33 -88 -36 -113 -25 -15 6 -28 15 -28 18 0 6 115 59
160 74 17 6 51 -1 64 -14z m391 -35 c57 -27 105 -68 105 -89 0 -20 0 -20 -97
22 -62 26 -87 43 -94 60 -19 51 -9 52 86 7z m-1072 -21 c4 -3 2 -12 -4 -19
-13 -15 -3 -53 14 -56 7 0 -10 -4 -37 -7 -27 -3 -51 -10 -52 -16 -2 -5 9 -25
24 -43 26 -31 31 -33 117 -39 50 -3 84 -8 78 -10 -21 -7 -15 -23 12 -35 27
-12 34 -38 10 -38 -46 0 -221 84 -277 133 -35 30 -35 47 -2 86 30 35 100 62
117 44z m647 -8 c0 -9 -9 -15 -22 -15 -22 1 -23 1 -4 15 25 19 26 19 26 0z
m191 -11 c-26 -33 -26 -50 -1 -64 17 -9 18 -14 7 -30 -15 -25 -20 -25 -32 3
-6 12 -29 31 -53 43 l-43 20 43 13 c24 7 54 19 68 27 34 18 34 18 11 -12z m79
-3 c0 -22 -46 -55 -66 -47 -19 7 -18 22 6 46 26 26 60 26 60 1z m100 -33 c13
-25 13 -31 0 -55 -23 -41 -84 -68 -128 -57 -20 5 -37 15 -40 22 -2 7 21 38 51
68 62 63 91 68 117 22z m-437 2 c3 -11 4 -20 3 -20 -2 0 -11 9 -21 20 -15 17
-16 20 -3 20 9 0 18 -9 21 -20z m101 -5 c90 -27 111 -40 121 -72 8 -28 10 -28
-95 5 -71 23 -87 32 -103 60 -10 17 -15 32 -11 32 4 0 44 -11 88 -25z m-126
-11 c13 -9 22 -26 22 -40 0 -23 -1 -24 -16 -10 -17 18 -54 22 -54 6 0 -5 9
-10 19 -10 11 0 23 -4 26 -10 3 -6 -5 -10 -19 -10 -32 0 -39 -12 -24 -45 14
-30 1 -45 -41 -45 -21 0 -23 3 -17 34 5 28 3 34 -14 39 -23 6 -27 27 -5 27 8
0 15 5 15 10 0 6 -6 10 -14 10 -8 0 -18 -4 -21 -10 -13 -22 -48 -1 -39 24 16
42 136 63 182 30z m560 -14 c39 -16 79 -28 89 -25 10 3 -6 -6 -36 -20 -50 -24
-55 -25 -72 -9 -17 16 -21 15 -54 -10 -42 -32 -133 -76 -158 -76 -15 0 -18 -7
-15 -32 3 -31 5 -33 38 -31 19 2 64 18 100 36 61 31 68 32 99 20 30 -13 38
-11 124 28 100 45 117 56 114 72 -3 17 93 48 115 36 28 -15 19 -29 -43 -70
-181 -120 -552 -189 -881 -164 -95 7 -98 8 -98 31 0 21 -5 24 -37 25 -21 0
-63 8 -93 17 l-55 18 55 23 c30 13 72 27 92 31 36 7 37 7 31 -21 -4 -24 -1
-30 22 -41 23 -10 32 -9 55 4 l28 16 -2 -31 c-1 -24 5 -34 24 -44 49 -25 205
-10 242 24 24 21 23 60 -2 75 -29 19 -26 40 5 32 17 -4 25 -2 25 6 0 9 6 7 19
-4 25 -23 96 -24 138 -2 38 19 56 49 55 88 0 15 1 28 3 28 1 0 35 -13 73 -30z
m-1232 -139 c145 -127 434 -203 784 -204 422 -1 779 114 859 275 l21 43 0 -33
c0 -28 -10 -44 -55 -88 -90 -87 -256 -156 -475 -196 -153 -28 -514 -31 -660
-5 -231 40 -404 111 -502 206 -49 48 -58 62 -58 91 l0 35 19 -40 c10 -23 40
-60 67 -84z m281 92 c7 -9 13 -21 13 -26 0 -5 -42 -7 -94 -5 -75 2 -98 7 -115
22 -38 35 -26 39 81 33 81 -5 106 -10 115 -24z m473 8 c0 -11 -23 -31 -36 -31
-6 0 -9 10 -7 24 4 17 10 22 24 19 10 -3 19 -8 19 -12z m669 -4 c9 -11 -7 -22
-78 -56 -78 -37 -91 -41 -115 -30 -14 7 -26 15 -26 19 0 12 153 79 181 80 15
0 32 -6 38 -13z m-919 -27 c0 -4 -39 -24 -86 -45 -77 -32 -89 -35 -115 -25
-36 15 -37 25 -1 38 15 6 53 22 86 35 47 20 64 23 87 15 16 -5 29 -13 29 -18z
m300 0 c0 -6 15 -9 33 -8 28 3 32 0 35 -24 2 -20 9 -28 22 -28 41 0 35 -40 -8
-60 -69 -31 -251 -20 -223 14 5 6 11 27 13 46 3 31 7 35 33 38 17 2 34 10 38
18 9 16 57 19 57 4z m396 -12 c4 -7 3 -8 -4 -4 -7 4 -12 2 -12 -4 0 -6 -5 -8
-11 -4 -8 4 -7 9 2 15 18 11 17 11 25 -3z m-536 -13 c-7 -8 -14 -15 -15 -15
-2 0 -5 7 -9 15 -4 10 1 15 16 15 17 0 18 -2 8 -15z m-203 -121 c-3 -3 -12 -4
-19 -1 -8 3 -5 6 6 6 11 1 17 -2 13 -5z"/>
<path d="M2440 2569 c0 -6 7 -9 15 -5 8 3 19 -2 24 -11 7 -14 12 -15 25 -4 8
7 20 10 26 6 5 -3 10 -2 10 3 0 5 -17 12 -37 16 -53 8 -63 8 -63 -5z"/>
<path d="M2045 2330 c3 -5 8 -10 11 -10 2 0 4 5 4 10 0 6 -5 10 -11 10 -5 0
-7 -4 -4 -10z"/>
<path d="M3035 2420 c-4 -6 -15 -8 -26 -5 -10 4 -19 2 -19 -3 0 -5 18 -12 41
-15 25 -3 49 -15 64 -31 25 -27 45 -34 45 -16 0 6 -6 10 -14 10 -8 0 -18 9
-21 20 -3 11 -11 20 -17 20 -6 0 -19 7 -29 16 -12 10 -19 12 -24 4z"/>
<path d="M1932 2413 c-13 -3 -26 -12 -29 -21 -4 -9 -11 -20 -17 -24 -6 -4 -8
-10 -4 -13 3 -4 16 3 28 15 12 12 37 24 56 27 19 3 37 10 40 14 5 9 -32 10
-74 2z"/>
<path d="M1735 2390 c3 -5 8 -10 11 -10 2 0 4 5 4 10 0 6 -5 10 -11 10 -5 0
-7 -4 -4 -10z"/>
<path d="M1865 2220 c-3 -5 1 -10 10 -10 9 0 13 5 10 10 -3 6 -8 10 -10 10 -2
0 -7 -4 -10 -10z"/>
<path d="M3160 2280 c0 -5 5 -10 10 -10 6 0 10 5 10 10 0 6 -4 10 -10 10 -5 0
-10 -4 -10 -10z"/>
<path d="M2160 2199 c0 -5 5 -7 10 -4 6 3 10 8 10 11 0 2 -4 4 -10 4 -5 0 -10
-5 -10 -11z"/>
<path d="M2453 2223 c-18 -2 -33 -8 -33 -12 0 -12 39 -21 46 -10 3 5 14 9 25
9 11 0 17 5 14 10 -3 6 -9 9 -13 8 -4 0 -22 -3 -39 -5z"/>
<path d="M2265 3911 c3 -18 5 -68 5 -110 0 -53 3 -71 10 -61 15 23 11 141 -6
175 l-14 30 5 -34z"/>
<path d="M1538 3107 c-3 -19 -2 -25 4 -19 6 6 8 18 6 28 -3 14 -5 12 -10 -9z"/>
<path d="M1488 2972 c-26 -53 -59 -109 -73 -124 -14 -16 -22 -28 -17 -28 14 0
68 62 95 110 22 38 51 129 44 137 -1 1 -23 -42 -49 -95z"/>
<path d="M2441 2884 c-1 -32 -3 -62 -4 -68 -1 -6 15 -11 36 -12 20 0 37 0 37
0 0 13 -44 114 -53 123 -11 12 -14 4 -16 -43z"/>
<path d="M1314 2209 c6 -85 41 -140 109 -175 27 -14 28 -14 19 3 -6 10 -20 27
-32 38 -22 20 -60 89 -86 155 l-14 35 4 -56z"/>
<path d="M1518 1910 c-16 -28 -28 -52 -28 -54 0 -2 25 -20 56 -40 46 -31 53
-40 44 -52 -11 -12 -21 -8 -68 26 -46 33 -58 37 -65 25 -4 -8 -6 -19 -3 -23 7
-12 146 -106 149 -101 25 36 57 91 57 98 0 5 -22 23 -50 41 -27 18 -50 38 -50
46 0 21 15 17 74 -21 53 -34 56 -34 66 -16 5 11 10 22 10 25 0 7 -145 96 -156
96 -5 0 -21 -23 -36 -50z"/>
<path d="M3218 1882 l-67 -48 55 -83 c30 -45 59 -81 63 -79 4 2 38 23 74 48
54 37 68 51 73 79 10 50 -28 121 -65 121 -14 0 -35 3 -46 6 -14 3 -42 -11 -87
-44z m116 -27 c24 -36 20 -51 -19 -81 -35 -26 -36 -26 -50 -8 -40 54 -41 65
-12 90 36 31 61 30 81 -1z"/>
<path d="M1679 1753 c-38 -82 -40 -88 -23 -100 26 -19 31 -17 43 17 5 17 14
30 19 30 5 0 35 -11 67 -25 32 -14 59 -25 60 -23 8 10 56 111 53 113 -7 7
-161 75 -170 75 -5 0 -27 -39 -49 -87z m116 20 c36 -17 41 -28 27 -51 -7 -10
-17 -9 -49 5 -36 16 -40 21 -32 41 10 26 9 26 54 5z"/>
<path d="M3033 1778 l-92 -51 44 -88 44 -88 100 46 99 46 -38 76 c-62 123 -51
118 -157 59z m95 -53 c12 -25 22 -49 22 -53 0 -10 -65 -42 -83 -42 -10 0 -57
69 -57 84 0 5 82 56 91 56 3 0 15 -20 27 -45z"/>
<path d="M1911 1747 c-5 -12 -23 -57 -41 -100 -18 -42 -31 -79 -29 -81 2 -3
16 -7 30 -11 24 -6 27 -2 63 89 21 52 35 99 32 104 -3 5 -15 12 -26 15 -15 4
-23 -1 -29 -16z"/>
<path d="M2830 1703 c-52 -19 -96 -36 -99 -38 -5 -5 37 -156 48 -174 6 -9 32
-5 107 15 54 15 100 28 102 30 3 2 -57 197 -61 200 -1 0 -45 -14 -97 -33z m69
-45 c5 -13 12 -37 15 -55 7 -31 6 -32 -41 -46 l-48 -15 -12 28 c-30 68 -28 77
19 93 57 20 57 20 67 -5z"/>
<path d="M1976 1718 c-6 -19 -35 -150 -38 -172 -3 -15 11 -23 81 -43 46 -13
85 -23 86 -21 2 2 5 16 7 32 3 27 0 30 -52 44 -30 8 -57 17 -59 18 -2 2 2 23
9 47 l12 44 60 -15 c51 -13 61 -13 69 -1 7 9 8 -20 3 -82 -7 -110 -15 -101
101 -114 33 -4 68 -9 78 -11 13 -4 17 1 17 19 0 23 -5 26 -70 37 -60 10 -70
15 -70 32 0 19 4 20 59 14 66 -8 96 9 34 19 -76 12 -83 15 -83 35 0 18 5 19
48 13 86 -13 107 -10 110 13 3 20 -4 23 -80 33 -46 7 -94 13 -108 15 -14 1
-30 5 -35 8 -11 6 -157 48 -168 48 -4 0 -9 -6 -11 -12z"/>
<path d="M2603 1658 c-60 -11 -58 -5 -41 -125 11 -76 14 -83 35 -83 20 0 23 5
23 39 0 39 0 40 45 47 36 5 45 10 45 26 0 18 -5 19 -49 13 -41 -5 -49 -4 -55
11 -8 21 9 34 44 34 45 1 70 12 70 31 0 22 -28 23 -117 7z"/>
<path d="M2808 1295 c-4 -4 -127 -11 -275 -16 -147 -6 -315 -12 -373 -14 -58
-3 -113 -5 -122 -5 -30 0 -49 -42 -42 -89 12 -74 11 -73 432 -66 l367 7 49 26
c27 15 54 34 59 43 12 20 3 60 -20 87 -19 22 -64 38 -75 27z m-578 -55 c0 -5
-8 -10 -17 -11 -11 0 -13 -3 -5 -6 6 -2 12 -11 12 -18 0 -7 -6 -16 -12 -18 -7
-3 3 -5 24 -5 36 1 36 1 15 18 -35 29 -9 48 68 49 61 1 84 -10 50 -23 -9 -3
-15 -18 -15 -36 0 -40 -18 -39 -22 3 -3 28 -7 32 -31 32 -24 1 -26 -1 -13 -11
9 -6 16 -21 16 -32 0 -19 -6 -21 -70 -21 l-70 0 0 38 c0 21 3 41 7 44 10 11
63 8 63 -3z m266 -1 c4 -8 9 -8 17 0 6 6 21 11 33 11 13 0 26 -5 30 -11 4 -8
9 -8 17 0 16 16 47 14 53 -4 5 -13 8 -13 21 0 35 35 80 1 67 -50 -5 -19 -13
-25 -35 -25 -29 0 -55 29 -41 46 4 5 -1 2 -12 -6 -10 -8 -14 -16 -7 -18 31
-10 4 -20 -54 -20 -52 0 -67 4 -75 18 -5 9 -6 21 -2 26 4 5 -1 2 -12 -6 -10
-8 -14 -16 -7 -18 22 -7 10 -22 -18 -22 -41 0 -46 14 -15 39 25 20 26 21 5 21
-21 0 -27 10 -14 23 10 11 41 8 49 -4z m-86 -69 c0 -5 -7 -10 -15 -10 -8 0
-15 5 -15 10 0 6 7 10 15 10 8 0 15 -4 15 -10z"/>
<path d="M2536 1214 c-4 -10 -2 -22 3 -27 7 -7 13 -5 17 7 4 10 2 22 -3 27 -7
7 -13 5 -17 -7z"/>
<path d="M2584 1200 c0 -18 2 -18 18 -3 10 9 18 18 18 20 0 1 -8 3 -18 3 -11
0 -18 -7 -18 -20z"/>
<path d="M2687 1214 c-9 -9 4 -35 14 -28 5 3 9 12 9 20 0 14 -12 19 -23 8z"/>
</g>
</svg>
